<svg width="70" height="71" viewBox="0 0 70 71" fill="none" xmlns="http://www.w3.org/2000/svg">
<g clip-path="url(#clip0_60_1892)">
<path d="M0.0906677 25.2184C0.0906677 35.8437 0.127009 41.5385 0.190605 42.1571C0.499503 45.1864 1.53522 48.152 3.12514 50.5446C5.74169 54.4744 9.55744 57.1945 14.1274 58.3862C16.9165 59.1049 20.2963 59.1049 23.1762 58.3771C25.593 57.7767 27.8643 56.6759 29.9175 55.1203C30.7261 54.5109 32.4341 52.9189 32.4341 52.7642C32.4341 52.7187 32.216 52.3184 31.9435 51.8909C27.5644 44.9226 27.6643 36.0803 32.207 29.2848C32.6522 28.6117 32.7794 28.3569 32.7157 28.2478C32.5885 28.0021 30.6262 26.1282 30.0265 25.6733C24.2846 21.2795 16.7257 20.5517 10.3116 23.772L9.10326 24.3724L9.05779 20.5517C9.01237 16.5126 8.98512 16.2124 8.53994 14.857C7.73135 12.4371 5.96882 10.7542 3.27958 9.8445C2.48009 9.57158 0.826572 9.2168 0.35414 9.2168H0.0906677L0.0906677 25.2184ZM20.805 30.9587C22.5221 31.4044 23.9394 32.205 25.2296 33.4421C26.5105 34.6793 27.4827 36.335 27.9551 38.0998C28.164 38.9004 28.1913 39.1915 28.2004 40.4651C28.2004 42.0661 28.0732 42.8212 27.5281 44.213C26.665 46.4691 24.5208 48.6433 22.2223 49.5985C20.6688 50.2444 18.6609 50.4991 16.9802 50.2444C12.8736 49.644 9.6211 46.5328 8.76707 42.3754C8.54903 41.3202 8.57628 39.6009 8.8125 38.4819C9.44845 35.5527 11.3018 33.1146 13.9093 31.7865C14.8541 31.3044 15.9898 30.9223 16.862 30.7768C17.7887 30.6311 19.9237 30.7313 20.805 30.9587Z" fill="white"/>
<mask id="mask0_60_1892" style="mask-type:luminance" maskUnits="userSpaceOnUse" x="29" y="7" width="9" height="8">
<path d="M37.0577 7.08789L29.4629 7.08789L29.4629 14.6926L37.0577 14.6926L37.0577 7.08789Z" fill="white"/>
</mask>
<g mask="url(#mask0_60_1892)">
<path d="M33.2108 14.692C32.2101 14.692 31.2692 14.2969 30.5616 13.5795C29.854 12.8621 29.4643 11.9084 29.4643 10.8939C29.4643 9.87939 29.854 8.9256 30.5616 8.20819C31.2692 7.49078 32.2101 7.0957 33.2108 7.0957C34.2115 7.0957 35.1523 7.49078 35.86 8.20819C36.5676 8.92556 36.9573 9.87939 36.9573 10.8939C36.9573 11.9084 36.5676 12.8621 35.86 13.5795C35.1523 14.2969 34.2115 14.692 33.2108 14.692ZM33.2108 7.44351C32.3017 7.44351 31.4471 7.80241 30.8043 8.45412C30.1614 9.10585 29.8074 9.97227 29.8074 10.8939C29.8074 11.8155 30.1614 12.6819 30.8043 13.3335C31.4471 13.9852 32.3017 14.3441 33.2108 14.3441C34.1198 14.3441 34.9745 13.9852 35.6174 13.3335C36.2602 12.6819 36.6142 11.8155 36.6142 10.8939C36.6142 9.97227 36.2602 9.1058 35.6174 8.45412C34.9745 7.80241 34.1198 7.44351 33.2108 7.44351Z" fill="white"/>
<path d="M33.2111 13.5255C31.7796 13.5255 30.6151 12.3448 30.6151 10.8936C30.6151 9.44239 31.7796 8.26172 33.2111 8.26172C34.6426 8.26172 35.8072 9.44239 35.8072 10.8936C35.8072 12.3448 34.6426 13.5255 33.2111 13.5255ZM33.2111 8.60956C31.9689 8.60956 30.9581 9.63416 30.9581 10.8936C30.9581 12.1531 31.9689 13.1777 33.2111 13.1777C34.4534 13.1777 35.4641 12.1531 35.4641 10.8936C35.4642 9.63416 34.4534 8.60956 33.2111 8.60956Z" fill="white"/>
<path d="M33.2118 8.60966C33.1171 8.60966 33.0403 8.5318 33.0403 8.43575L33.0403 8.05477C33.0403 7.95872 33.1171 7.88086 33.2118 7.88086C33.3065 7.88086 33.3834 7.95872 33.3834 8.05477L33.3834 8.43575C33.3834 8.5318 33.3066 8.60966 33.2118 8.60966Z" fill="white"/>
<path d="M33.2118 13.9065C33.1171 13.9065 33.0403 13.8287 33.0403 13.7326L33.0403 13.3517C33.0403 13.2556 33.1171 13.1777 33.2118 13.1777C33.3065 13.1777 33.3834 13.2556 33.3834 13.3517L33.3834 13.7326C33.3834 13.8287 33.3066 13.9065 33.2118 13.9065Z" fill="white"/>
<path d="M31.7848 9.07791C31.7317 9.07791 31.6794 9.05305 31.6458 9.00621L31.4249 8.69801C31.3693 8.6203 31.3863 8.51154 31.4629 8.45508C31.5395 8.39865 31.6468 8.41588 31.7025 8.49357L31.9235 8.80177C31.9791 8.87947 31.9621 8.98823 31.8855 9.04469C31.855 9.06711 31.8197 9.07791 31.7848 9.07791Z" fill="white"/>
<path d="M34.8571 13.365C34.804 13.365 34.7518 13.3402 34.7181 13.2933L34.4972 12.9851C34.4416 12.9075 34.4585 12.7987 34.5352 12.7422C34.6118 12.6857 34.7191 12.703 34.7748 12.7807L34.9958 13.0889C35.0514 13.1666 35.0344 13.2753 34.9578 13.3318C34.9273 13.3542 34.892 13.365 34.8571 13.365Z" fill="white"/>
<path d="M30.905 10.3094C30.8874 10.3094 30.8696 10.3066 30.852 10.3008L30.4946 10.1831C30.4045 10.1534 30.3552 10.0553 30.3844 9.96399C30.4137 9.87256 30.5105 9.82263 30.6006 9.85232L30.958 9.96998C31.0481 9.99967 31.0974 10.0978 31.0681 10.1892C31.0445 10.2626 30.9774 10.3094 30.905 10.3094Z" fill="white"/>
<path d="M35.8729 11.9462C35.8553 11.9462 35.8376 11.9433 35.8199 11.9375L35.4625 11.8199C35.3724 11.7902 35.3231 11.692 35.3524 11.6007C35.3817 11.5094 35.4784 11.4593 35.5685 11.489L35.926 11.6068C36.016 11.6365 36.0653 11.7346 36.036 11.826C36.0125 11.8994 35.9453 11.9462 35.8729 11.9462Z" fill="white"/>
<path d="M30.5476 11.946C30.4752 11.946 30.408 11.8994 30.3844 11.8258C30.3552 11.7345 30.4045 11.6364 30.4946 11.6067L30.852 11.489C30.9421 11.4594 31.0388 11.5093 31.0681 11.6007C31.0974 11.692 31.0481 11.7901 30.958 11.8197L30.6006 11.9375C30.583 11.9433 30.5652 11.946 30.5476 11.946Z" fill="white"/>
<path d="M35.5155 10.3094C35.4431 10.3094 35.3759 10.2627 35.3524 10.1892C35.3231 10.0978 35.3724 9.99967 35.4625 9.96998L35.8199 9.85232C35.91 9.82263 36.0068 9.87256 36.036 9.9639C36.0653 10.0553 36.016 10.1534 35.926 10.1831L35.5685 10.3008C35.5509 10.3066 35.5331 10.3094 35.5155 10.3094Z" fill="white"/>
<path d="M31.5636 13.365C31.5287 13.365 31.4934 13.3542 31.4629 13.3318C31.3863 13.2753 31.3693 13.1667 31.4249 13.0889L31.6458 12.7807C31.7016 12.703 31.8088 12.6857 31.8855 12.7422C31.9621 12.7987 31.9791 12.9075 31.9235 12.9852L31.7026 13.2933C31.6689 13.3402 31.6167 13.365 31.5636 13.365Z" fill="white"/>
<path d="M34.6359 9.07793C34.601 9.07793 34.5657 9.06711 34.5352 9.0447C34.4585 8.98823 34.4416 8.87948 34.4972 8.80177L34.7181 8.49357C34.7738 8.41586 34.8811 8.39866 34.9578 8.45509C35.0344 8.51154 35.0514 8.6203 34.9957 8.69801L34.7748 9.00621C34.7412 9.05306 34.6889 9.07793 34.6359 9.07793Z" fill="white"/>
<path d="M28.9489 19.24C28.8985 19.2401 28.8487 19.2177 28.8148 19.1747C28.7556 19.0998 28.7677 18.9903 28.8416 18.9303L29.2003 18.6394C29.2026 18.6376 29.2049 18.6359 29.2072 18.6342C29.3603 18.5224 29.395 18.3052 29.2848 18.1501L27.3524 15.4312C27.299 15.3561 27.2199 15.3065 27.1297 15.2916C27.0408 15.277 26.9516 15.2978 26.8781 15.3503L26.523 15.6382C26.449 15.6982 26.341 15.6859 26.2819 15.6109C26.2227 15.5359 26.2348 15.4265 26.3088 15.3665L26.6675 15.0756C26.6697 15.0738 26.672 15.0721 26.6744 15.0704C26.8228 14.9619 27.0041 14.9185 27.1848 14.9483C27.3654 14.978 27.5238 15.0773 27.6308 15.2279L29.5631 17.9468C29.7831 18.2563 29.7148 18.6889 29.4115 18.9136L29.0559 19.202C29.0243 19.2276 28.9865 19.24 28.9489 19.24ZM32.8164 12.2628C32.7217 12.2628 32.6449 12.1849 32.6449 12.0889L32.6449 10.025C32.6449 9.94029 32.5769 9.87129 32.4933 9.87129C32.3985 9.87129 32.3217 9.79339 32.3217 9.69733C32.3217 9.60127 32.3985 9.52344 32.4933 9.52344C32.7661 9.52344 32.988 9.74845 32.988 10.025L32.988 11.8995C33.4389 11.8172 33.782 11.4165 33.782 10.9361C33.782 10.9115 33.7623 10.8915 33.7381 10.8915C33.7139 10.8915 33.6942 10.9115 33.6942 10.9361C33.6942 11.0321 33.6174 11.11 33.5227 11.11C33.4279 11.11 33.3511 11.0321 33.3511 10.9361C33.3511 10.7197 33.5248 10.5437 33.7381 10.5437C33.9516 10.5437 34.1251 10.7197 34.1251 10.9361C34.1251 11.6676 33.5381 12.2628 32.8164 12.2628Z" fill="white"/>
<path d="M33.1858 10.5236H32.4677C32.3729 10.5236 32.2961 10.4457 32.2961 10.3497C32.2961 10.2537 32.3729 10.1758 32.4677 10.1758H33.1858C33.2806 10.1758 33.3574 10.2537 33.3574 10.3497C33.3574 10.4457 33.2806 10.5236 33.1858 10.5236Z" fill="white"/>
</g>
<path d="M43.6397 3.28906L40.855 4.55651L41.6145 6.33093L43.1334 5.57046L49.7156 15.203C41.1294 17.3231 37.1856 19.7065 30.9817 25.0891L31.7412 25.5961C37.8864 20.4565 44.016 17.8088 52.5004 16.4705L43.6397 3.28906Z" fill="white"/>
<path d="M37.7149 5.0614L36.7022 3.79395L39.487 2.01953L47.5881 14.4405C39.4317 16.8827 35.5984 19.1328 30.12 24.3266L29.3606 23.8196C34.5641 18.8569 37.8613 16.4715 45.3097 13.68L38.9807 4.30093L37.7149 5.0614Z" fill="white"/>
<path d="M35.0319 3.03489C28.2987 8.06844 25.3521 11.7631 22.1207 20.7791L20.8549 20.5256C24.7074 9.64312 28.0521 5.29208 35.7914 0.5L43.8925 12.921C36.6988 15.4403 33.2053 17.7006 28.1966 23.314L27.4371 22.807C31.6456 17.564 34.5791 15.126 41.1078 11.6535L35.0319 3.03489Z" fill="white"/>
<path d="M58.9466 10.5757C58.9103 11.2944 58.892 14.8334 58.9103 18.4453C58.9375 22.057 58.9284 24.9956 58.9011 24.9865C58.8739 24.9683 58.365 24.7045 57.7652 24.4043C52.4313 21.6658 46.1068 21.6931 40.7727 24.4861C36.102 26.9334 32.6945 31.2457 31.3769 36.4041C30.45 39.9886 30.7136 44.2373 32.0584 47.6671C33.7668 52.0158 36.929 55.4821 41.0908 57.5745C43.7714 58.9211 46.343 59.5215 49.4053 59.5124C52.3858 59.5033 54.9301 58.9211 57.4927 57.6746C59.3828 56.7467 60.873 55.6823 62.4451 54.1174C65.4528 51.1334 67.1884 47.6035 67.8245 43.1546C67.9153 42.5178 67.9426 39.4155 67.9426 29.2352L67.9426 16.1344L67.6518 15.4066C66.4251 12.368 63.9353 10.412 60.1279 9.48397C59.6281 9.36569 59.1738 9.26563 59.1193 9.26563C59.0465 9.26563 58.992 9.69318 58.9466 10.5757ZM52.1678 31.3276C55.8479 32.3375 58.674 35.4034 59.31 39.0788C59.8735 42.2813 58.8375 45.5564 56.5477 47.8309C54.6757 49.6868 52.2768 50.6602 49.6052 50.6602C45.0981 50.6602 41.1817 47.5671 40.0639 43.1182C39.7823 41.9901 39.7823 39.6793 40.0639 38.5603C40.5092 36.7863 41.2725 35.4034 42.5265 34.0933C44.0895 32.4557 45.7161 31.5641 47.9515 31.1366C48.9873 30.9364 51.1045 31.0274 52.1678 31.3276Z" fill="white"/>
<path d="M35.399 70.4097L35.399 63.0302L35.2539 61.8535L41.971 61.8535C42.619 61.8535 43.1364 61.9261 43.5233 62.0714C43.9198 62.207 44.2149 62.3958 44.4083 62.638C44.6114 62.8704 44.742 63.1464 44.8 63.466C44.8677 63.7758 44.9016 64.1051 44.9016 64.4538L44.9016 65.6014C44.9016 66.0662 44.8242 66.4972 44.6694 66.8942C44.5244 67.2816 44.2487 67.5963 43.8425 67.8385C43.446 68.0709 42.8705 68.1871 42.1161 68.1871H41.115C40.5057 68.1871 39.9351 68.1726 39.4031 68.1435C38.8808 68.1145 38.4891 68.0902 38.228 68.0709L38.228 70.4097H35.399ZM38.228 66.2115H41.2311C41.5503 66.2115 41.7727 66.1486 41.8985 66.0226C42.0242 65.8967 42.0871 65.6933 42.0871 65.4125L42.0871 64.6717C42.0871 64.3909 42.029 64.1875 41.913 64.0616C41.7969 63.926 41.5745 63.8582 41.2456 63.8582L38.228 63.8582L38.228 66.2115ZM45.0193 70.4097L49.2701 61.868H53.0421L57.2784 70.4097L54.1592 70.4097L53.4484 68.8553H48.8639L48.066 70.4097H45.0193ZM49.6618 66.8507H52.6359L51.2287 63.7565H51.0836L49.6618 66.8507ZM60.332 70.4097L60.332 66.8797L56.0958 61.868H59.5921L61.0284 63.8582L61.6958 64.9186H61.8408L62.5082 63.8582L63.9154 61.868H67.4118L66.846 62.7396L63.132 66.9378L63.132 70.4097H60.332Z" fill="white"/>
<path d="M35.399 70.4097L35.399 63.0302L35.2539 61.8535L41.971 61.8535C42.619 61.8535 43.1364 61.9261 43.5233 62.0714C43.9198 62.207 44.2149 62.3958 44.4083 62.638C44.6114 62.8704 44.742 63.1464 44.8 63.466C44.8677 63.7758 44.9016 64.1051 44.9016 64.4538L44.9016 65.6014C44.9016 66.0662 44.8242 66.4972 44.6694 66.8942C44.5244 67.2816 44.2487 67.5963 43.8425 67.8385C43.446 68.0709 42.8705 68.1871 42.1161 68.1871H41.115C40.5057 68.1871 39.9351 68.1726 39.4031 68.1435C38.8808 68.1145 38.4891 68.0902 38.228 68.0709L38.228 70.4097H35.399ZM38.228 66.2115H41.2311C41.5503 66.2115 41.7727 66.1486 41.8985 66.0226C42.0242 65.8967 42.0871 65.6933 42.0871 65.4125L42.0871 64.6717C42.0871 64.3909 42.029 64.1875 41.913 64.0616C41.7969 63.926 41.5745 63.8582 41.2456 63.8582L38.228 63.8582L38.228 66.2115ZM45.0193 70.4097L49.2701 61.868H53.0421L57.2784 70.4097L54.1592 70.4097L53.4484 68.8553H48.8639L48.066 70.4097H45.0193ZM49.6618 66.8507H52.6359L51.2287 63.7565H51.0836L49.6618 66.8507ZM60.332 70.4097L60.332 66.8797L56.0958 61.868H59.5921L61.0284 63.8582L61.6958 64.9186H61.8408L62.5082 63.8582L63.9154 61.868H67.4118L66.846 62.7396L63.132 66.9378L63.132 70.4097H60.332Z" fill="white"/>
</g>
<defs>
<clipPath id="clip0_60_1892">
<rect width="70" height="70" fill="white" transform="translate(0 0.5)"/>
</clipPath>
</defs>
</svg>
