<svg width="1438" height="93" viewBox="0 0 1438 93" fill="none" xmlns="http://www.w3.org/2000/svg">
<path d="M0 89.6403L47.9667 78.4604C95.9333 67.2805 191.867 44.9208 287.8 26.2644C383.733 7.88751 479.667 -7.4848 575.6 3.90468C671.533 14.8749 767.467 52.607 863.4 63.5772C959.333 74.9667 1055.27 59.5944 1151.2 44.9208C1247.13 30.2472 1343.07 14.8749 1391.03 7.67789L1439 0.201353V112H1391.03C1343.07 112 1247.13 112 1151.2 112C1055.27 112 959.333 112 863.4 112C767.467 112 671.533 112 575.6 112C479.667 112 383.733 112 287.8 112C191.867 112 95.9333 112 47.9667 112H0V89.6403Z" fill="#F9FAFB"/>
</svg>
